<svg width="19" height="16" viewBox="0 0 19 16" fill="none" xmlns="http://www.w3.org/2000/svg">
    <path d="M18.8006 2.49876C18.115 2.8028 17.3774 3.00843 16.6039 3.10027C17.3937 2.6271 17.9998 1.87841 18.2858 0.984833C17.5468 1.42321 16.728 1.74122 15.8572 1.91264C15.1596 1.16965 14.1656 0.705322 13.065 0.705322C10.9532 0.705322 9.24051 2.41804 9.24051 4.52977C9.24051 4.82953 9.27445 5.12131 9.34005 5.40139C6.16161 5.24195 3.3434 3.71948 1.45699 1.40495C1.12785 1.96968 0.939039 2.6271 0.939039 3.32788C0.939039 4.65441 1.61471 5.8255 2.64035 6.51116C2.01373 6.49148 1.42362 6.3195 0.908236 6.03229C0.90795 6.04854 0.90795 6.0648 0.90795 6.08077C0.90795 7.93382 2.22679 9.4794 3.97601 9.8305C3.65543 9.91834 3.31688 9.96483 2.96863 9.96483C2.72163 9.96483 2.48234 9.94116 2.24903 9.89667C2.73561 11.4157 4.14771 12.5215 5.82164 12.5526C4.5125 13.5785 2.86367 14.1897 1.07138 14.1897C0.763346 14.1897 0.458166 14.1718 0.159546 14.1361C1.85116 15.2216 3.86192 15.8545 6.02157 15.8545C13.0561 15.8545 16.9031 10.027 16.9031 4.97271C16.9031 4.807 16.8994 4.64186 16.892 4.47815C17.6398 3.93909 18.2881 3.2657 18.8006 2.49876Z" fill="#F1F2F2"/>
</svg>
